<svg width="32" height="32" viewBox="0 0 32 32" fill="none" xmlns="http://www.w3.org/2000/svg">
<g clip-path="url(#clip0)">
<path d="M31.4981 19.8939C29.3612 28.4654 20.6797 33.6819 12.1071 31.5444C3.53821 29.4075 -1.67824 20.7254 0.459615 12.1546C2.59559 3.58214 11.2771 -1.6347 19.847 0.502212C28.4189 2.63913 33.6351 11.3222 31.4979 19.8941L31.4981 19.8939H31.4981Z" fill="#F7931A"/>
<path d="M23.0573 13.7204C23.3757 11.5912 21.7547 10.4466 19.538 9.68311L20.2571 6.79885L18.5013 6.36137L17.8013 9.16969C17.3397 9.05457 16.8657 8.94609 16.3946 8.83856L17.0997 6.01171L15.3451 5.57422L14.6256 8.45754C14.2436 8.37057 13.8685 8.28462 13.5045 8.19406L13.5065 8.18499L11.0853 7.58037L10.6183 9.45561C10.6183 9.45561 11.9209 9.7542 11.8934 9.77258C12.6044 9.95003 12.733 10.4207 12.7116 10.7937L11.8925 14.0796C11.9415 14.092 12.005 14.11 12.075 14.1381C12.0165 14.1236 11.9541 14.1077 11.8894 14.0922L10.7413 18.6952C10.6544 18.9112 10.4339 19.2354 9.93679 19.1123C9.95438 19.1378 8.66069 18.7939 8.66069 18.7939L7.789 20.8036L10.0738 21.3732C10.4989 21.4798 10.9154 21.5913 11.3256 21.6962L10.599 24.6135L12.3527 25.051L13.0722 22.1646C13.5513 22.2947 14.0163 22.4147 14.4714 22.5278L13.7544 25.4005L15.5102 25.838L16.2366 22.9261C19.2305 23.4927 21.4817 23.2643 22.4293 20.5563C23.1928 18.3761 22.3913 17.1185 20.8162 16.2984C21.9634 16.0339 22.8275 15.2793 23.0579 13.7207L23.0573 13.7203L23.0573 13.7204ZM19.0458 19.3455C18.5032 21.5258 14.8324 20.3472 13.6422 20.0517L14.6063 16.1867C15.7964 16.4838 19.6129 17.0718 19.0459 19.3455H19.0458ZM19.5888 13.6888C19.0938 15.672 16.0385 14.6645 15.0474 14.4174L15.9215 10.9121C16.9127 11.1592 20.1044 11.6203 19.589 13.6888H19.5888Z" fill="white"/>
</g>
<defs>
<clipPath id="clip0">
<rect width="32" height="32" fill="white"/>
</clipPath>
</defs>
</svg>
