<svg width="32" height="32" viewBox="0 0 32 32" fill="none" xmlns="http://www.w3.org/2000/svg">
<circle cx="16" cy="16" r="16" fill="#8247E5"/>
<path d="M21.0923 12.4989C20.7232 12.2706 20.2435 12.2706 19.8376 12.4989L16.9594 14.2495L15.0037 15.3911L12.1255 17.1416C11.7565 17.37 11.2768 17.37 10.8708 17.1416L8.58303 15.7717C8.21402 15.5433 7.95572 15.1247 7.95572 14.6681V11.9662C7.95572 11.5095 8.17712 11.0909 8.58303 10.8626L10.8339 9.53066C11.203 9.30233 11.6827 9.30233 12.0886 9.53066L14.3395 10.8626C14.7085 11.0909 14.9668 11.5095 14.9668 11.9662V13.7167L16.9225 12.537V10.7865C16.9225 10.3298 16.7011 9.91121 16.2952 9.68288L12.1255 7.17125C11.7565 6.94292 11.2768 6.94292 10.8708 7.17125L6.62731 9.68288C6.2214 9.91121 6 10.3298 6 10.7865V15.8478C6 16.3044 6.2214 16.723 6.62731 16.9514L10.8708 19.463C11.2399 19.6913 11.7196 19.6913 12.1255 19.463L15.0037 17.7505L16.9594 16.5708L19.8376 14.8584C20.2066 14.63 20.6863 14.63 21.0923 14.8584L23.3432 16.1903C23.7122 16.4186 23.9705 16.8372 23.9705 17.2939V19.9958C23.9705 20.4524 23.7491 20.871 23.3432 21.0994L21.0923 22.4693C20.7232 22.6977 20.2435 22.6977 19.8376 22.4693L17.5867 21.1374C17.2177 20.9091 16.9594 20.4905 16.9594 20.0338V18.2833L15.0037 19.463V21.2135C15.0037 21.6702 15.2251 22.0888 15.631 22.3171L19.8745 24.8288C20.2435 25.0571 20.7232 25.0571 21.1292 24.8288L25.3727 22.3171C25.7417 22.0888 26 21.6702 26 21.2135V16.1522C26 15.6956 25.7786 15.277 25.3727 15.0486L21.0923 12.4989Z" fill="white"/>
</svg>
