<svg width="50" height="50" viewBox="0 0 50 50" fill="none" xmlns="http://www.w3.org/2000/svg">
<circle cx="25" cy="25" r="25" fill="white"/>
<path d="M33.1475 19.5539C32.5571 19.1987 31.7896 19.1987 31.1403 19.5539L26.535 22.2769L23.4059 24.0529L18.8007 26.7759C18.2103 27.1311 17.4428 27.1311 16.7934 26.7759L13.1328 24.6448C12.5424 24.2896 12.1292 23.6385 12.1292 22.9282V18.7252C12.1292 18.0148 12.4834 17.3636 13.1328 17.0085L16.7343 14.9366C17.3247 14.5814 18.0922 14.5814 18.7417 14.9366L22.3432 17.0085C22.9335 17.3636 23.3469 18.0148 23.3469 18.7252V21.4482L26.476 19.6131V16.8901C26.476 16.1797 26.1218 15.5285 25.4723 15.1734L18.8007 11.2664C18.2103 10.9112 17.4428 10.9112 16.7934 11.2664L10.0037 15.1734C9.35424 15.5285 9 16.1797 9 16.8901V24.7632C9 25.4736 9.35424 26.1248 10.0037 26.4799L16.7934 30.387C17.3838 30.7421 18.1513 30.7421 18.8007 30.387L23.4059 27.723L26.535 25.8879L31.1403 23.2241C31.7306 22.8689 32.4981 22.8689 33.1475 23.2241L36.749 25.296C37.3394 25.6511 37.7527 26.3024 37.7527 27.0127V31.2156C37.7527 31.9261 37.3985 32.5772 36.749 32.9323L33.1475 35.0635C32.5571 35.4186 31.7896 35.4186 31.1403 35.0635L27.5388 32.9916C26.9483 32.6364 26.535 31.9851 26.535 31.2749V28.5519L23.4059 30.387V33.1099C23.4059 33.8202 23.7602 34.4714 24.4096 34.8267L31.1993 38.7336C31.7896 39.0888 32.5571 39.0888 33.2066 38.7336L39.9964 34.8267C40.5867 34.4714 41 33.8202 41 33.1099V25.2367C41 24.5264 40.6457 23.8753 39.9964 23.5202L33.1475 19.5539Z" fill="url(#paint0_linear_2065_1633)"/>
<defs>
<linearGradient id="paint0_linear_2065_1633" x1="10" y1="22" x2="42.5" y2="28" gradientUnits="userSpaceOnUse">
<stop stop-color="#2CCDFF"/>
<stop offset="1" stop-color="#13B6FF"/>
</linearGradient>
</defs>
</svg>
