<svg width="32" height="32" viewBox="0 0 32 32" fill="none" xmlns="http://www.w3.org/2000/svg">
<path d="M16 32C24.8667 32 32 24.8667 32 16C32 7.13328 24.8667 0 16 0C7.13328 0 0 7.13328 0 16C0 24.8667 7.13328 32 16 32Z" fill="#4D70EE"/>
<path d="M20.4001 18.5332C20.4001 16.2 19.0001 15.4 16.2001 15.0667C14.2001 14.7999 13.8001 14.2667 13.8001 13.3332C13.8001 12.3998 14.4668 11.7999 15.8001 11.7999C17.0001 11.7999 17.6668 12.1999 18.0001 13.1999C18.0668 13.3999 18.2668 13.5332 18.4668 13.5332H19.5333C19.8001 13.5332 20.0001 13.3332 20.0001 13.0667V12.9999C19.7333 11.5332 18.5333 10.3999 17.0001 10.2667V8.66665C17.0001 8.39993 16.8001 8.19993 16.4668 8.13321H15.4668C15.2001 8.13321 15.0001 8.33321 14.9334 8.66665V10.1999C12.9334 10.4667 11.6668 11.7999 11.6668 13.4667C11.6668 15.6667 13.0001 16.5332 15.8001 16.8667C17.6668 17.2 18.2668 17.6 18.2668 18.6667C18.2668 19.7334 17.3334 20.4667 16.0668 20.4667C14.3334 20.4667 13.7334 19.7332 13.5334 18.7332C13.4668 18.4667 13.2668 18.3332 13.0668 18.3332H11.9334C11.6668 18.3332 11.4668 18.5332 11.4668 18.8V18.8667C11.7334 20.5332 12.8001 21.7333 15.0001 22.0667V23.6667C15.0001 23.9333 15.2001 24.1333 15.5334 24.2H16.5334C16.8001 24.2 17.0001 24 17.0668 23.6667V22.0667C19.0668 21.7333 20.4001 20.3332 20.4001 18.5332Z" fill="white"/>
<path d="M12.6 25.5333C7.39999 23.6668 4.73327 17.8668 6.66671 12.7333C7.66671 9.93334 9.86671 7.80006 12.6 6.80006C12.8667 6.66678 13 6.46678 13 6.13334V5.20006C13 4.93334 12.8667 4.73334 12.6 4.66678C12.5333 4.66678 12.4 4.66678 12.3333 4.73334C5.99999 6.73334 2.53327 13.4668 4.53327 19.8001C5.73327 23.5333 8.59999 26.4001 12.3333 27.6001C12.6 27.7333 12.8667 27.6001 12.9333 27.3333C13 27.2668 13 27.2001 13 27.0668V26.1333C13 25.9333 12.8 25.6668 12.6 25.5333ZM19.6667 4.73334C19.4 4.60006 19.1333 4.73334 19.0667 5.00006C19 5.06678 19 5.13334 19 5.26678V6.20006C19 6.46678 19.2 6.73334 19.4 6.86678C24.6 8.73334 27.2667 14.5333 25.3333 19.6668C24.3333 22.4668 22.1333 24.6001 19.4 25.6001C19.1333 25.7333 19 25.9333 19 26.2668V27.2001C19 27.4668 19.1333 27.6668 19.4 27.7333C19.4667 27.7333 19.6 27.7333 19.6667 27.6668C26 25.6668 29.4667 18.9333 27.4667 12.6001C26.2667 8.80006 23.3333 5.93334 19.6667 4.73334Z" fill="white"/>
</svg>
