<svg width="32" height="32" viewBox="0 0 32 32" fill="none" xmlns="http://www.w3.org/2000/svg">
<circle cx="16" cy="16" r="16" fill="#53AE94"/>
<path d="M17.5869 13.7507V11.4637H22.7246V7.97916H8.73436V11.4637H13.8727V13.7488C9.69672 13.944 6.55679 14.7859 6.55679 15.7944C6.55679 16.8029 9.69823 17.6447 13.8727 17.8412V25.1667H17.5881V17.8406C21.7565 17.6447 24.8901 16.8035 24.8901 15.7959C24.8901 14.7884 21.7565 13.9471 17.5881 13.7513L17.5869 13.7507ZM17.5881 17.2201V17.2183C17.4833 17.225 16.9447 17.2579 15.7455 17.2579C14.7868 17.2579 14.1123 17.2303 13.8745 17.2177V17.2207C10.1852 17.0544 7.43126 16.4004 7.43126 15.6179C7.43126 14.8354 10.1855 14.1823 13.8745 14.0157V16.5692C14.1162 16.5861 14.8073 16.6276 15.7612 16.6276C16.9069 16.6276 17.483 16.5791 17.5887 16.5692V14.0157C21.2708 14.1826 24.0184 14.8372 24.0184 15.617C24.0184 16.3967 21.2696 17.0516 17.5887 17.2186" fill="white"/>
</svg>
