<svg width="24" height="24" viewBox="0 0 24 24" fill="none" xmlns="http://www.w3.org/2000/svg">
<path fill-rule="evenodd" clip-rule="evenodd" d="M7.73114 18.921L10.3314 19.5931V18.7143L10.5437 18.5075H12.0295V19.5413V20.265H10.4376L8.47407 19.438L7.73114 18.921Z" fill="#CDBDB2"/>
<path fill-rule="evenodd" clip-rule="evenodd" d="M16.2217 18.921L13.6745 19.5931V18.7143L13.4622 18.5075H11.9764V19.5413V20.265H13.5684L15.5318 19.438L16.2217 18.921Z" fill="#CDBDB2"/>
<path fill-rule="evenodd" clip-rule="evenodd" d="M10.5437 17.0085L10.3314 18.7143L10.5967 18.5075H13.3561L13.6745 18.7143L13.4623 17.0085L13.0377 16.75L10.9151 16.8017L10.5437 17.0085Z" fill="#393939"/>
<path fill-rule="evenodd" clip-rule="evenodd" d="M9.11084 5.4812L10.3844 8.37594L10.9682 16.8017H13.0377L13.6745 8.37594L14.842 5.4812H9.11084Z" fill="#F89C35"/>
<path fill-rule="evenodd" clip-rule="evenodd" d="M3.53895 11.8393L2.0531 16.0263L5.76772 15.8195H8.15565V14.0104L8.04952 10.2886L7.51886 10.7021L3.53895 11.8393Z" fill="#F89D35"/>
<path fill-rule="evenodd" clip-rule="evenodd" d="M6.35138 12.3045L10.7028 12.4079L10.2252 14.5789L8.15562 14.062L6.35138 12.3045Z" fill="#D87C30"/>
<path fill-rule="evenodd" clip-rule="evenodd" d="M6.35138 12.3563L8.15562 14.0104V15.6645L6.35138 12.3563Z" fill="#EA8D3A"/>
<path fill-rule="evenodd" clip-rule="evenodd" d="M8.15564 14.062L10.2783 14.5789L10.9682 16.8017L10.4905 17.0601L8.15564 15.7161V14.062Z" fill="#F89D35"/>
<path fill-rule="evenodd" clip-rule="evenodd" d="M8.15567 15.7162L7.73114 18.9211L10.5437 17.0085L8.15567 15.7162Z" fill="#EB8F35"/>
<path fill-rule="evenodd" clip-rule="evenodd" d="M10.7028 12.4079L10.9682 16.8017L10.1721 14.5531L10.7028 12.4079Z" fill="#EA8E3A"/>
<path fill-rule="evenodd" clip-rule="evenodd" d="M5.7146 15.7679L8.15564 15.7162L7.73111 18.9211L5.7146 15.7679Z" fill="#D87C30"/>
<path fill-rule="evenodd" clip-rule="evenodd" d="M3.22055 20.3168L7.73112 18.9211L5.71461 15.7679L2.0531 16.0264L3.22055 20.3168Z" fill="#EB8F35"/>
<path fill-rule="evenodd" clip-rule="evenodd" d="M10.3844 8.37592L8.10261 10.2368L6.35138 12.3045L10.7028 12.4596L10.3844 8.37592Z" fill="#E8821E"/>
<path fill-rule="evenodd" clip-rule="evenodd" d="M7.73114 18.9211L10.5437 17.0085L10.3314 18.6627V19.5931L8.42105 19.2312L7.73114 18.9211Z" fill="#DFCEC3"/>
<path fill-rule="evenodd" clip-rule="evenodd" d="M16.2217 18.9211L13.4622 17.0085L13.6745 18.6627V19.5931L15.5849 19.2312L16.2217 18.9211Z" fill="#DFCEC3"/>
<path fill-rule="evenodd" clip-rule="evenodd" d="M9.53537 13.3384L10.1191 14.5273L8.04952 14.0104L9.53537 13.3384Z" fill="#393939"/>
<path fill-rule="evenodd" clip-rule="evenodd" d="M3.16742 3.05176L10.3844 8.37596L9.16393 5.48122L3.16742 3.05176Z" fill="#E88F35"/>
<path fill-rule="evenodd" clip-rule="evenodd" d="M3.16741 3.0517L2.21222 5.89474L2.74288 8.99625L2.37142 9.20301L2.90208 9.66824L2.47755 10.0301L3.06128 10.547L2.68981 10.8571L3.53887 11.891L7.51882 10.7021C9.46458 9.18578 10.4198 8.41041 10.3844 8.37595C10.349 8.34148 7.94335 6.56674 3.16741 3.0517Z" fill="#8E5A30"/>
<path fill-rule="evenodd" clip-rule="evenodd" d="M20.4139 11.8393L21.8997 16.0263L18.1851 15.8195H15.7972V14.0104L15.9033 10.2886L16.434 10.7021L20.4139 11.8393Z" fill="#F89D35"/>
<path fill-rule="evenodd" clip-rule="evenodd" d="M17.6014 12.3045L13.25 12.4079L13.7276 14.5789L15.7972 14.062L17.6014 12.3045Z" fill="#D87C30"/>
<path fill-rule="evenodd" clip-rule="evenodd" d="M17.6014 12.3563L15.7972 14.0104V15.6645L17.6014 12.3563Z" fill="#EA8D3A"/>
<path fill-rule="evenodd" clip-rule="evenodd" d="M15.7972 14.062L13.6745 14.5789L12.9846 16.8017L13.4623 17.0601L15.7972 15.7161V14.062Z" fill="#F89D35"/>
<path fill-rule="evenodd" clip-rule="evenodd" d="M15.7972 15.7162L16.2217 18.9211L13.4623 17.0602L15.7972 15.7162Z" fill="#EB8F35"/>
<path fill-rule="evenodd" clip-rule="evenodd" d="M13.25 12.4079L12.9847 16.8017L13.7807 14.5531L13.25 12.4079Z" fill="#EA8E3A"/>
<path fill-rule="evenodd" clip-rule="evenodd" d="M18.2382 15.7679L15.7972 15.7162L16.2217 18.9211L18.2382 15.7679Z" fill="#D87C30"/>
<path fill-rule="evenodd" clip-rule="evenodd" d="M20.7323 20.3168L16.2217 18.9211L18.2382 15.7679L21.8997 16.0264L20.7323 20.3168Z" fill="#EB8F35"/>
<path fill-rule="evenodd" clip-rule="evenodd" d="M13.5684 8.37592L15.8502 10.2368L17.6014 12.3045L13.25 12.4596L13.5684 8.37592Z" fill="#E8821E"/>
<path fill-rule="evenodd" clip-rule="evenodd" d="M14.4175 13.3384L13.8337 14.5273L15.9033 14.0104L14.4175 13.3384Z" fill="#393939"/>
<path fill-rule="evenodd" clip-rule="evenodd" d="M20.7854 3.05176L13.5684 8.37596L14.7889 5.48122L20.7854 3.05176Z" fill="#E88F35"/>
<path fill-rule="evenodd" clip-rule="evenodd" d="M20.7854 3.0517L21.7406 5.89474L21.2099 8.99625L21.5814 9.20301L21.0507 9.66824L21.4753 10.0301L20.8915 10.547L21.263 10.8571L20.4139 11.891L16.434 10.7021C14.4882 9.18578 13.5331 8.41041 13.5684 8.37595C13.6038 8.34148 16.0095 6.56674 20.7854 3.0517Z" fill="#8E5A30"/>
</svg>
