<svg width="36" height="36" viewBox="0 0 36 36" fill="none" xmlns="http://www.w3.org/2000/svg">
<path fill-rule="evenodd" clip-rule="evenodd" d="M16.9629 20.2424L15.9259 20.2424C14.8257 20.2424 13.7706 19.7855 12.9927 18.9722C12.2148 18.1589 11.7777 17.0559 11.7777 15.9057C11.7777 14.7556 12.2148 13.6525 12.9927 12.8392C13.7706 12.0259 14.8257 11.569 15.9259 11.569L16.9629 11.569L16.9629 5.54067L14.5851 7.91848C14.1801 8.32347 13.5235 8.32347 13.1185 7.91848C12.7135 7.51349 12.7135 6.85688 13.1185 6.45189L17.2667 2.30374C17.6716 1.89875 18.3283 1.89875 18.7332 2.30374L22.8814 6.45189C23.2864 6.85688 23.2864 7.51349 22.8814 7.91848C22.4764 8.32347 21.8198 8.32347 21.4148 7.91848L19.037 5.54067L19.037 11.569L21.1111 11.569C21.9362 11.569 22.7275 11.9117 23.3109 12.5217C23.8944 13.1316 24.2222 13.9589 24.2222 14.8215C24.2222 15.1091 24.1129 15.3849 23.9184 15.5882C23.7239 15.7915 23.4602 15.9057 23.1851 15.9057C22.9101 15.9057 22.6463 15.7915 22.4518 15.5882C22.2574 15.3849 22.1481 15.1091 22.1481 14.8215C22.1481 14.534 22.0388 14.2582 21.8444 14.0549C21.6499 13.8516 21.3861 13.7374 21.1111 13.7374L19.037 13.7374L19.037 18.0741L20.074 18.0741C21.1742 18.0741 22.2293 18.531 23.0072 19.3443C23.7851 20.1576 24.2222 21.2606 24.2222 22.4108C24.2222 23.5609 23.7851 24.664 23.0072 25.4773C22.2293 26.2906 21.1742 26.7475 20.074 26.7475L19.037 26.7475L19.037 28.9158C19.037 29.2034 18.9277 29.4791 18.7332 29.6825C18.5388 29.8858 18.275 30 17.9999 30C17.7249 30 17.4611 29.8858 17.2667 29.6825C17.0722 29.4791 16.9629 29.2034 16.9629 28.9158L16.9629 26.7475L14.8888 26.7475C14.0637 26.7475 13.2724 26.4048 12.6889 25.7948C12.1055 25.1849 11.7777 24.3576 11.7777 23.4949C11.7777 23.2074 11.887 22.9316 12.0815 22.7283C12.2759 22.525 12.5397 22.4108 12.8148 22.4108C13.0898 22.4108 13.3536 22.525 13.5481 22.7283C13.7425 22.9316 13.8518 23.2074 13.8518 23.4949C13.8518 23.7825 13.9611 24.0583 14.1555 24.2616C14.35 24.4649 14.6138 24.5791 14.8888 24.5791L16.9629 24.5791L16.9629 20.2424ZM20.074 20.2424L19.037 20.2424L19.037 24.5791L20.074 24.5791C20.6241 24.5791 21.1516 24.3507 21.5406 23.944C21.9296 23.5374 22.1481 22.9859 22.1481 22.4108C22.1481 21.8357 21.9296 21.2842 21.5406 20.8775C21.1516 20.4709 20.6241 20.2424 20.074 20.2424ZM16.9629 13.7374L15.9259 13.7374C15.3758 13.7374 14.8482 13.9658 14.4593 14.3725C14.0703 14.7791 13.8518 15.3306 13.8518 15.9057C13.8518 16.4808 14.0703 17.0323 14.4593 17.439C14.8482 17.8456 15.3758 18.0741 15.9259 18.0741L16.9629 18.0741L16.9629 13.7374Z" fill="url(#paint0_linear_905_372)"/>
<path fill-rule="evenodd" clip-rule="evenodd" d="M4 25C4.55228 25 5 25.4477 5 26V29C5 31.2091 6.79086 33 9 33H27C29.2091 33 31 31.2091 31 29V26C31 25.4477 31.4477 25 32 25C32.5523 25 33 25.4477 33 26V29C33 32.3137 30.3137 35 27 35H9C5.68629 35 3 32.3137 3 29V26C3 25.4477 3.44772 25 4 25Z" fill="white"/>
<defs>
<linearGradient id="paint0_linear_905_372" x1="17.9999" y1="30" x2="18" y2="-2.5" gradientUnits="userSpaceOnUse">
<stop stop-color="white"/>
<stop offset="0.494792" stop-color="#A0D2EB"/>
<stop offset="1" stop-color="#8683FC"/>
</linearGradient>
</defs>
</svg>
