<svg width="20" height="20" viewBox="0 0 20 20" fill="none" xmlns="http://www.w3.org/2000/svg">
<g clip-path="url(#clip0)">
<path d="M15.2626 4.73682H4.73633V15.2631H15.2626V4.73682Z" fill="white"/>
<path d="M15.2637 20L20.0005 15.2632H15.2637V20Z" fill="#EA4335"/>
<path d="M20.0005 4.73682H15.2637V15.2631H20.0005V4.73682Z" fill="#FBBC04"/>
<path d="M15.2626 15.2632H4.73633V20H15.2626V15.2632Z" fill="#34A853"/>
<path d="M0 15.2632V18.4211C0 19.2934 0.706579 20 1.57895 20H4.73684V15.2632H0Z" fill="#188038"/>
<path d="M20.0005 4.73684V1.57895C20.0005 0.706579 19.2939 0 18.4216 0H15.2637V4.73684H20.0005Z" fill="#1967D2"/>
<path d="M15.2632 0H1.57895C0.706579 0 0 0.706579 0 1.57895V15.2632H4.73684V4.73684H15.2632V0Z" fill="#4285F4"/>
<path d="M6.89553 12.9027C6.50211 12.6369 6.22974 12.2487 6.08105 11.7356L6.99421 11.3592C7.07711 11.675 7.22184 11.9198 7.42842 12.0935C7.63368 12.2671 7.88369 12.3527 8.17579 12.3527C8.47448 12.3527 8.73105 12.2619 8.94553 12.0803C9.16 11.8987 9.2679 11.6671 9.2679 11.3869C9.2679 11.1 9.15474 10.8658 8.92842 10.6842C8.70211 10.5027 8.4179 10.4119 8.07842 10.4119H7.55079V9.50793H8.02447C8.31658 9.50793 8.56263 9.42899 8.76263 9.27109C8.96263 9.1132 9.06263 8.89741 9.06263 8.62241C9.06263 8.37767 8.97316 8.18293 8.79421 8.03688C8.61526 7.89083 8.38895 7.81715 8.11395 7.81715C7.84553 7.81715 7.63237 7.8882 7.47448 8.03162C7.31668 8.17542 7.19806 8.35699 7.12974 8.55925L6.22579 8.18293C6.34553 7.84346 6.56527 7.54346 6.88763 7.28425C7.21 7.02504 7.62185 6.89478 8.12185 6.89478C8.49158 6.89478 8.82448 6.96583 9.11921 7.10925C9.41395 7.25267 9.64553 7.45136 9.81263 7.70399C9.97974 7.95793 10.0626 8.24214 10.0626 8.55793C10.0626 8.8803 9.985 9.15267 9.82974 9.37635C9.67447 9.60004 9.48368 9.77109 9.25737 9.89083V9.94478C9.5496 10.0653 9.80344 10.2631 9.99158 10.5171C10.1824 10.7737 10.2784 11.0803 10.2784 11.4382C10.2784 11.7961 10.1876 12.1158 10.0061 12.3961C9.82447 12.6764 9.57316 12.8974 9.25474 13.0579C8.935 13.2185 8.57579 13.3 8.17711 13.3C7.71526 13.3014 7.28895 13.1685 6.89553 12.9027ZM12.5047 8.37109L11.5021 9.09609L11.0008 8.33557L12.7995 7.0382H13.4889V13.1579H12.5047V8.37109Z" fill="#4285F4"/>
</g>
<defs>
<clipPath id="clip0">
<rect width="20" height="20" fill="white"/>
</clipPath>
</defs>
</svg>
