<svg width="24" height="24" viewBox="0 0 24 24" fill="none" xmlns="http://www.w3.org/2000/svg">
<circle cx="12" cy="12" r="12" fill="#4F4A67"/>
<path fill-rule="evenodd" clip-rule="evenodd" d="M12 17.4C14.9823 17.4 17.4 14.9823 17.4 12C17.4 9.01766 14.9823 6.6 12 6.6C9.01766 6.6 6.6 9.01766 6.6 12C6.6 14.9823 9.01766 17.4 12 17.4ZM12 15.6C13.9882 15.6 15.6 13.9882 15.6 12C15.6 11.7276 15.5698 11.4623 15.5124 11.2073L9.55794 14.6451C10.1997 15.2378 11.0575 15.6 12 15.6ZM8.58111 13.1306L14.6877 9.60493C14.0284 8.86557 13.0686 8.4 12 8.4C10.0118 8.4 8.4 10.0118 8.4 12C8.4 12.3949 8.4636 12.775 8.58111 13.1306Z" fill="white"/>
<path fill-rule="evenodd" clip-rule="evenodd" d="M21 12C21 16.9706 16.9706 21 12 21C7.02944 21 3 16.9706 3 12C3 7.02944 7.02944 3 12 3C16.9706 3 21 7.02944 21 12ZM19.2 12C19.2 15.9764 15.9764 19.2 12 19.2C8.02355 19.2 4.8 15.9764 4.8 12C4.8 8.02355 8.02355 4.8 12 4.8C15.9764 4.8 19.2 8.02355 19.2 12Z" fill="white"/>
</svg>
