<svg width="20" height="20" viewBox="0 0 20 20" fill="none" xmlns="http://www.w3.org/2000/svg">
<path d="M17.2727 4.75C17.2727 4.75 15.1882 3.17937 12.7273 3L12.5055 3.42744C14.73 3.952 15.7509 4.70188 16.8182 5.625C14.9786 4.72113 13.1636 3.875 10 3.875C6.83636 3.875 5.02136 4.72113 3.18182 5.625C4.24909 4.70188 5.46364 3.868 7.49455 3.42744L7.27273 3C4.69091 3.23406 2.72727 4.75 2.72727 4.75C2.72727 4.75 0.399545 7.99887 0 14.375C2.34545 16.9794 5.90909 17 5.90909 17L6.65455 16.0445C5.38909 15.621 3.96182 14.8654 2.72727 13.5C4.19909 14.5719 6.42045 15.6875 10 15.6875C13.5795 15.6875 15.8009 14.5719 17.2727 13.5C16.0386 14.8654 14.6114 15.621 13.3455 16.0445L14.0909 17C14.0909 17 17.6545 16.9794 20 14.375C19.6005 7.99887 17.2727 4.75 17.2727 4.75ZM7.04545 12.625C6.16636 12.625 5.45455 11.8419 5.45455 10.875C5.45455 9.90812 6.16636 9.125 7.04545 9.125C7.92455 9.125 8.63636 9.90812 8.63636 10.875C8.63636 11.8419 7.92455 12.625 7.04545 12.625ZM12.9545 12.625C12.0755 12.625 11.3636 11.8419 11.3636 10.875C11.3636 9.90812 12.0755 9.125 12.9545 9.125C13.8336 9.125 14.5455 9.90812 14.5455 10.875C14.5455 11.8419 13.8336 12.625 12.9545 12.625Z" fill="white"/>
</svg>
