<svg width="24" height="24" viewBox="0 0 24 24" fill="none" xmlns="http://www.w3.org/2000/svg">
<path fill-rule="evenodd" clip-rule="evenodd" d="M10.7487 0.351955V0.703909H8.98753H7.93025C7.54149 0.703909 7.22634 1.01906 7.22634 1.40782V1.40782V1.40782C7.22634 1.79658 7.54149 2.11173 7.93025 2.11173H8.98753H10.7487V2.81564V3.51955H9.69482V3.51955C9.11079 3.51955 8.63545 3.98942 8.6287 4.57342L8.62637 4.77485C8.61294 5.9348 8.60429 6.04639 8.5129 6.24372C8.36834 6.55593 8.14775 6.78329 7.84544 6.93163C7.58187 7.06096 7.56585 7.06274 6.54535 7.07865L5.51212 7.09475V9.55327V12.0118L10.7957 12.0243L16.0792 12.0368L16.3198 12.1637C16.6196 12.3216 16.9178 12.6546 17.015 12.9394C17.0635 13.0817 17.089 13.323 17.089 13.6407V13.6407C17.089 13.9082 17.3058 14.1251 17.5734 14.1251H19.5851H21.3417C21.7458 14.1251 22.0693 13.7899 22.0549 13.386V13.386C21.9911 11.604 21.4234 10.2168 20.2704 9.0259C19.0618 7.77768 17.5998 7.12365 15.8679 7.05655C15.545 7.04407 15.1919 7.0114 15.0832 6.984C14.8387 6.92234 14.5365 6.66992 14.3986 6.41228C14.2992 6.22659 14.2939 6.15733 14.2802 4.86871L14.277 4.57352C14.2708 3.98961 13.7957 3.51955 13.2117 3.51955V3.51955H12.1577V2.81564V2.11173H13.9188H14.9761C15.3649 2.11173 15.68 1.79658 15.68 1.40782V1.40782V1.40782C15.68 1.01906 15.3649 0.703909 14.9761 0.703909H13.9188H12.1577V0.351955V0.351955C12.1577 0.157575 12.0001 0 11.8057 0H11.4532H11.1007C10.9063 0 10.7487 0.157575 10.7487 0.351955V0.351955ZM0.874335 5.6569C0.854939 5.67722 0.839111 7.43248 0.839111 9.55754V13.4212H1.60985C2.44813 13.4212 2.7441 13.3645 3.15209 13.1256C3.44966 12.9513 3.7832 12.571 3.95359 12.2116L4.10317 11.8961L4.11665 9.646C4.12952 7.49813 4.12581 7.38166 4.03484 7.08241C3.85295 6.48399 3.36413 5.98712 2.74119 5.76741C2.51355 5.68712 2.31048 5.66337 1.68448 5.64399C1.25827 5.6308 0.893732 5.63662 0.874335 5.6569ZM19.1689 16.0551C17.7827 17.6124 16.8637 18.9661 16.5537 19.907C16.4171 20.3214 16.3774 20.7226 16.4328 21.1273C16.5371 21.8882 16.8571 22.5344 17.3919 23.064C17.7821 23.4504 18.1883 23.6995 18.7093 23.872C19.0315 23.9788 19.1685 23.9969 19.6721 23.9999C20.3416 24.0038 20.7089 23.916 21.2923 23.6125C21.7233 23.3884 22.3176 22.805 22.5595 22.3687C22.961 21.6443 23.092 20.8331 22.9171 20.1553C22.7364 19.4553 22.0708 18.28 21.326 17.3459C20.8088 16.6973 19.7468 15.486 19.6953 15.486C19.6844 15.486 19.4475 15.7421 19.1689 16.0551Z" fill="white"/>
</svg>
