<svg width="20" height="20" viewBox="0 0 20 20" fill="none" xmlns="http://www.w3.org/2000/svg">
<path d="M8.91522 14.6459C9.26601 14.6459 9.47648 14.9402 9.47648 15.2345C9.47648 15.6023 9.19585 15.823 8.91522 15.823C8.56444 15.823 8.35397 15.5287 8.35397 15.2345C8.35397 14.9402 8.56444 14.6459 8.91522 14.6459ZM18.1058 10.8942C17.755 10.8942 17.5445 10.5999 17.5445 10.3056C17.5445 10.0114 17.8251 9.71713 18.1058 9.71713C18.4566 9.71713 18.667 10.0114 18.667 10.3056C18.667 10.5999 18.3864 10.8942 18.1058 10.8942ZM18.1058 8.39297C17.1236 8.39297 16.2817 9.27574 16.2817 10.3056C16.2817 10.5263 16.2817 10.747 16.3518 10.8942L10.3885 14.2046C10.0377 13.6896 9.47648 13.3953 8.91522 13.3953C8.21365 13.3953 7.58224 13.8367 7.30162 14.4252L1.9697 11.4827C1.40844 11.1884 0.987502 10.1585 1.05766 9.27574C1.05766 8.83436 1.26813 8.46654 1.4786 8.31941C1.61891 8.24584 1.82938 8.24584 1.9697 8.31941H2.03985C3.44299 9.12862 8.1435 11.6298 8.28381 11.7769C8.56444 11.9241 8.77491 11.9976 9.26601 11.7034L18.8775 6.4803C19.0178 6.40673 19.1581 6.25961 19.1581 6.03891C19.1581 5.74466 18.8775 5.59753 18.8775 5.59753C18.3162 5.30327 17.4744 4.93545 16.7026 4.49406C14.9487 3.61129 12.9843 2.65495 12.0723 2.21357C11.3006 1.77218 10.7393 2.14 10.599 2.21357L10.3885 2.28713C6.45973 4.34693 1.19797 7.06881 0.917345 7.21594C0.35609 7.58376 0.0754633 8.24584 0.00530645 9.05505C-0.0648504 10.3792 0.566561 11.7769 1.54876 12.2919L7.23146 15.3816C7.37177 16.3379 8.1435 17 8.98538 17C9.96757 17 10.8095 16.1908 10.8095 15.1609L17.0534 11.6298C17.4042 11.9241 17.755 11.9976 18.1759 11.9976C19.1581 11.9976 20 11.1149 20 10.085C19.8597 9.20218 19.088 8.39297 18.1058 8.39297Z" fill="white"/>
</svg>
