<svg width="20" height="20" viewBox="0 0 20 20" fill="none" xmlns="http://www.w3.org/2000/svg">
<path fill-rule="evenodd" clip-rule="evenodd" d="M9.99959 0C4.47709 0 0 4.49458 0 10.0404C0 14.4754 2.865 18.2383 6.83917 19.5658C7.33917 19.6583 7.52207 19.3483 7.52207 19.0825C7.52207 18.8437 7.51333 18.2125 7.50791 17.375C4.72624 17.9817 4.13918 16.0292 4.13918 16.0292C3.68501 14.8692 3.02958 14.5604 3.02958 14.5604C2.12125 13.9375 3.09832 13.95 3.09832 13.95C4.10124 14.0208 4.62916 14.9846 4.62916 14.9846C5.52208 16.5192 6.97 16.0763 7.54 15.8188C7.63042 15.17 7.88916 14.7275 8.175 14.4767C5.95416 14.2229 3.62 13.3621 3.62 9.515C3.62 8.41917 4.00917 7.52291 4.64917 6.82083C4.54626 6.56666 4.20334 5.54624 4.74709 4.16374C4.74709 4.16374 5.58666 3.89417 7.49708 5.19292C8.29499 4.97042 9.14999 4.85916 10.0004 4.85499C10.85 4.85916 11.7054 4.97042 12.5046 5.19292C14.4129 3.89417 15.2513 4.16374 15.2513 4.16374C15.7971 5.54624 15.4537 6.56666 15.3508 6.82083C15.9917 7.52291 16.3788 8.41875 16.3788 9.515C16.3788 13.3717 14.0408 14.2204 11.8133 14.4692C12.1717 14.7792 12.4921 15.3912 12.4921 16.3283C12.4921 17.67 12.4796 18.7529 12.4796 19.0825C12.4796 19.3508 12.6596 19.6633 13.1671 19.5646C17.1375 18.2346 20 14.4742 20 10.0404C20 4.49458 15.5225 0 9.99959 0Z" fill="white"/>
</svg>
