<svg width="16" height="22" viewBox="0 0 16 22" fill="none" xmlns="http://www.w3.org/2000/svg">
<path d="M15 20H14V18.3C14 17.7 13.9 17.2 13.7 16.6V16.5C13.5 16.1 13.3 15.6 13 15.3L11.6 13.4C11.2 12.9 11 12.2 11 11.6V10.6C11 9.8 11.3 9 11.9 8.5L12.6 7.8C13.4 7 13.9 6 14 5C14 4.8 14 4.6 14 4.3V2H15C15.6 2 16 1.6 16 1C16 0.4 15.6 0 15 0H1C0.4 0 0 0.4 0 1C0 1.6 0.4 2 1 2H2V4.3C2 4.6 2 4.8 2.1 5C2.2 6.1 2.7 7.1 3.5 7.8L4.2 8.5C4.7 9.1 5 9.9 5 10.7V11.7C5 12.3 4.8 13 4.4 13.5L3 15.3C2.7 15.7 2.5 16.1 2.3 16.5V16.6C2.1 17.2 2 17.8 2 18.3V20H1C0.4 20 0 20.4 0 21C0 21.6 0.4 22 1 22H15C15.6 22 16 21.6 16 21C16 20.4 15.6 20 15 20ZM4 4V2H12V4H4ZM5 16L6 14.7C6.6 13.9 6.9 13 7 12H9C9.1 13 9.4 13.9 10 14.7L11 16H5Z" fill="#A0D2EB"/>
</svg>
