<svg width="9" height="11" viewBox="0 0 9 11" fill="none" xmlns="http://www.w3.org/2000/svg">
<path d="M7.84073 9.79545H7.36346V8.98409C7.36346 8.69773 7.31573 8.45909 7.22028 8.17273V8.125C7.12482 7.93409 7.02937 7.69545 6.88619 7.55227L6.218 6.64545C6.02709 6.40682 5.93164 6.07273 5.93164 5.78636V5.30909C5.93164 4.92727 6.07482 4.54545 6.36119 4.30682L6.69528 3.97273C7.0771 3.59091 7.31573 3.11364 7.36346 2.63636C7.36346 2.54091 7.36346 2.44545 7.36346 2.30227V1.20455H7.84073C8.12709 1.20455 8.318 1.01364 8.318 0.727273C8.318 0.440909 8.12709 0.25 7.84073 0.25H1.15891C0.87255 0.25 0.681641 0.440909 0.681641 0.727273C0.681641 1.01364 0.87255 1.20455 1.15891 1.20455H1.63619V2.30227C1.63619 2.44545 1.63619 2.54091 1.68391 2.63636C1.73164 3.16136 1.97028 3.63864 2.3521 3.97273L2.68619 4.30682C2.92482 4.59318 3.068 4.975 3.068 5.35682V5.83409C3.068 6.12045 2.97255 6.45454 2.78164 6.69318L2.11346 7.55227C1.97028 7.74318 1.87482 7.93409 1.77937 8.125V8.17273C1.68391 8.45909 1.63619 8.74545 1.63619 8.98409V9.79545H1.15891C0.87255 9.79545 0.681641 9.98636 0.681641 10.2727C0.681641 10.5591 0.87255 10.75 1.15891 10.75H7.84073C8.12709 10.75 8.318 10.5591 8.318 10.2727C8.318 9.98636 8.12709 9.79545 7.84073 9.79545ZM2.59073 2.15909V1.20455H6.40891V2.15909H2.59073ZM3.068 7.88636L3.54528 7.26591C3.83164 6.88409 3.97482 6.45454 4.02255 5.97727H4.97709C5.02482 6.45454 5.168 6.88409 5.45437 7.26591L5.93164 7.88636H3.068Z" fill="#A0D2EB"/>
</svg>
