<svg width="20" height="20" viewBox="0 0 20 20" fill="none" xmlns="http://www.w3.org/2000/svg">
<path d="M15.8335 17.5H15.0002V16.0834C15.0002 15.5834 14.9168 15.1667 14.7502 14.6667V14.5834C14.5835 14.25 14.4168 13.8334 14.1668 13.5834L13.0002 12C12.6668 11.5834 12.5002 11 12.5002 10.5V9.66671C12.5002 9.00004 12.7502 8.33337 13.2502 7.91671L13.8335 7.33337C14.5002 6.66671 14.9168 5.83337 15.0002 5.00004C15.0002 4.83337 15.0002 4.66671 15.0002 4.41671V2.50004H15.8335C16.3335 2.50004 16.6668 2.16671 16.6668 1.66671C16.6668 1.16671 16.3335 0.833374 15.8335 0.833374H4.16683C3.66683 0.833374 3.3335 1.16671 3.3335 1.66671C3.3335 2.16671 3.66683 2.50004 4.16683 2.50004H5.00016V4.41671C5.00016 4.66671 5.00016 4.83337 5.0835 5.00004C5.16683 5.91671 5.5835 6.75004 6.25016 7.33337L6.8335 7.91671C7.25016 8.41671 7.50016 9.08337 7.50016 9.75004V10.5834C7.50016 11.0834 7.3335 11.6667 7.00016 12.0834L5.8335 13.5834C5.5835 13.9167 5.41683 14.25 5.25016 14.5834V14.6667C5.0835 15.1667 5.00016 15.6667 5.00016 16.0834V17.5H4.16683C3.66683 17.5 3.3335 17.8334 3.3335 18.3334C3.3335 18.8334 3.66683 19.1667 4.16683 19.1667H15.8335C16.3335 19.1667 16.6668 18.8334 16.6668 18.3334C16.6668 17.8334 16.3335 17.5 15.8335 17.5ZM6.66683 4.16671V2.50004H13.3335V4.16671H6.66683ZM7.50016 14.1667L8.3335 13.0834C8.8335 12.4167 9.0835 11.6667 9.16683 10.8334H10.8335C10.9168 11.6667 11.1668 12.4167 11.6668 13.0834L12.5002 14.1667H7.50016Z" fill="white"/>
</svg>
