<svg width="18" height="18" viewBox="0 0 18 18" fill="none" xmlns="http://www.w3.org/2000/svg">
<path d="M9.00008 0.666672C4.41675 0.666672 0.666748 4.41667 0.666748 9.00001C0.666748 13.5833 4.41675 17.3333 9.00008 17.3333C13.5834 17.3333 17.3334 13.5833 17.3334 9.00001C17.3334 4.41667 13.5834 0.666672 9.00008 0.666672ZM9.00008 13.1667C8.50008 13.1667 8.16675 12.8333 8.16675 12.3333C8.16675 11.8333 8.50008 11.5 9.00008 11.5C9.50008 11.5 9.83342 11.8333 9.83342 12.3333C9.83342 12.8333 9.50008 13.1667 9.00008 13.1667ZM9.83342 9.00001C9.83342 9.50001 9.50008 9.83334 9.00008 9.83334C8.50008 9.83334 8.16675 9.50001 8.16675 9.00001V5.66667C8.16675 5.16667 8.50008 4.83334 9.00008 4.83334C9.50008 4.83334 9.83342 5.16667 9.83342 5.66667V9.00001Z" fill="#434859"/>
</svg>
