<svg width="18" height="18" viewBox="0 0 18 18" fill="none" xmlns="http://www.w3.org/2000/svg">
<path d="M8.99984 0.666626C4.4165 0.666626 0.666504 4.41663 0.666504 8.99996C0.666504 13.5833 4.4165 17.3333 8.99984 17.3333C13.5832 17.3333 17.3332 13.5833 17.3332 8.99996C17.3332 4.41663 13.5832 0.666626 8.99984 0.666626ZM8.99984 13.1666C8.49984 13.1666 8.1665 12.8333 8.1665 12.3333C8.1665 11.8333 8.49984 11.5 8.99984 11.5C9.49984 11.5 9.83317 11.8333 9.83317 12.3333C9.83317 12.8333 9.49984 13.1666 8.99984 13.1666ZM9.83317 8.99996C9.83317 9.49996 9.49984 9.83329 8.99984 9.83329C8.49984 9.83329 8.1665 9.49996 8.1665 8.99996V5.66663C8.1665 5.16663 8.49984 4.83329 8.99984 4.83329C9.49984 4.83329 9.83317 5.16663 9.83317 5.66663V8.99996Z" fill="white" fill-opacity="0.64"/>
</svg>
