<svg width="36" height="36" viewBox="0 0 36 36" fill="none" xmlns="http://www.w3.org/2000/svg">
<path fill-rule="evenodd" clip-rule="evenodd" d="M19.0371 11.7576H20.0741C21.1743 11.7576 22.2294 12.2145 23.0073 13.0278C23.7852 13.8411 24.2223 14.9441 24.2223 16.0943C24.2223 17.2444 23.7852 18.3475 23.0073 19.1608C22.2294 19.9741 21.1743 20.431 20.0741 20.431H19.0371V26.4593L21.4149 24.0815C21.8199 23.6765 22.4765 23.6765 22.8815 24.0815C23.2865 24.4865 23.2865 25.1431 22.8815 25.5481L18.7334 29.6963C18.3284 30.1012 17.6717 30.1012 17.2668 29.6963L13.1186 25.5481C12.7136 25.1431 12.7136 24.4865 13.1186 24.0815C13.5236 23.6765 14.1802 23.6765 14.5852 24.0815L16.963 26.4593V20.431H14.8889C14.0638 20.431 13.2725 20.0883 12.6891 19.4783C12.1056 18.8684 11.7778 18.0411 11.7778 17.1785C11.7778 16.8909 11.8871 16.6151 12.0816 16.4118C12.2761 16.2085 12.5398 16.0943 12.8149 16.0943C13.0899 16.0943 13.3537 16.2085 13.5482 16.4118C13.7426 16.6151 13.8519 16.8909 13.8519 17.1785C13.8519 17.466 13.9612 17.7418 14.1556 17.9451C14.3501 18.1484 14.6139 18.2626 14.8889 18.2626H16.963V13.9259H15.926C14.8258 13.9259 13.7707 13.469 12.9928 12.6557C12.2149 11.8424 11.7778 10.7394 11.7778 9.58923C11.7778 8.43906 12.2149 7.336 12.9928 6.52271C13.7707 5.70943 14.8258 5.25253 15.926 5.25253H16.963V3.08417C16.963 2.79663 17.0723 2.52087 17.2668 2.31755C17.4612 2.11423 17.725 2 18.0001 2C18.2751 2 18.5389 2.11423 18.7333 2.31755C18.9278 2.52087 19.0371 2.79663 19.0371 3.08417V5.25253H21.1112C21.9363 5.25253 22.7276 5.5952 23.3111 6.20517C23.8945 6.81513 24.2223 7.64243 24.2223 8.50505C24.2223 8.79259 24.113 9.06836 23.9185 9.27168C23.7241 9.475 23.4603 9.58923 23.1852 9.58923C22.9102 9.58923 22.6464 9.475 22.4519 9.27168C22.2575 9.06836 22.1482 8.79259 22.1482 8.50505C22.1482 8.21751 22.0389 7.94174 21.8445 7.73842C21.65 7.5351 21.3862 7.42088 21.1112 7.42088H19.0371V11.7576ZM15.926 11.7576H16.963V7.42088H15.926C15.3759 7.42088 14.8484 7.64933 14.4594 8.05597C14.0704 8.46261 13.8519 9.01414 13.8519 9.58923C13.8519 10.1643 14.0704 10.7158 14.4594 11.1225C14.8484 11.5291 15.3759 11.7576 15.926 11.7576ZM19.0371 18.2626H20.0741C20.6242 18.2626 21.1518 18.0342 21.5407 17.6275C21.9297 17.2209 22.1482 16.6694 22.1482 16.0943C22.1482 15.5192 21.9297 14.9677 21.5407 14.561C21.1518 14.1544 20.6242 13.9259 20.0741 13.9259H19.0371V18.2626Z" fill="url(#paint0_linear_906_380)"/>
<path fill-rule="evenodd" clip-rule="evenodd" d="M4 25C4.55228 25 5 25.4477 5 26V29C5 31.2091 6.79086 33 9 33H27C29.2091 33 31 31.2091 31 29V26C31 25.4477 31.4477 25 32 25C32.5523 25 33 25.4477 33 26V29C33 32.3137 30.3137 35 27 35H9C5.68629 35 3 32.3137 3 29V26C3 25.4477 3.44772 25 4 25Z" fill="#363B4D"/>
<defs>
<linearGradient id="paint0_linear_906_380" x1="18.0001" y1="2" x2="18.0001" y2="30" gradientUnits="userSpaceOnUse">
<stop stop-color="#8683FC"/>
<stop offset="1" stop-color="#363B4D"/>
</linearGradient>
</defs>
</svg>
