<svg width="16" height="16" viewBox="0 0 16 16" fill="none" xmlns="http://www.w3.org/2000/svg">
<path d="M12.8 7.056C12.5878 7.056 12.3843 7.14029 12.2343 7.29031C12.0843 7.44034 12 7.64383 12 7.856V13.6C12 13.8122 11.9157 14.0157 11.7657 14.1657C11.6157 14.3157 11.4122 14.4 11.2 14.4H2.4C2.18783 14.4 1.98434 14.3157 1.83431 14.1657C1.68429 14.0157 1.6 13.8122 1.6 13.6V4.8C1.6 4.58783 1.68429 4.38434 1.83431 4.23431C1.98434 4.08429 2.18783 4 2.4 4H8.144C8.35617 4 8.55966 3.91571 8.70969 3.76569C8.85971 3.61566 8.944 3.41217 8.944 3.2C8.944 2.98783 8.85971 2.78434 8.70969 2.63431C8.55966 2.48429 8.35617 2.4 8.144 2.4H2.4C1.76348 2.4 1.15303 2.65286 0.702944 3.10294C0.252856 3.55303 0 4.16348 0 4.8V13.6C0 14.2365 0.252856 14.847 0.702944 15.2971C1.15303 15.7471 1.76348 16 2.4 16H11.2C11.8365 16 12.447 15.7471 12.8971 15.2971C13.3471 14.847 13.6 14.2365 13.6 13.6V7.856C13.6 7.64383 13.5157 7.44034 13.3657 7.29031C13.2157 7.14029 13.0122 7.056 12.8 7.056ZM15.936 0.496C15.8548 0.30052 15.6995 0.14518 15.504 0.0639999C15.4078 0.0230072 15.3045 0.00126399 15.2 0H10.4C10.1878 0 9.98434 0.0842854 9.83432 0.234315C9.68429 0.384344 9.6 0.587827 9.6 0.8C9.6 1.01217 9.68429 1.21566 9.83432 1.36569C9.98434 1.51571 10.1878 1.6 10.4 1.6H13.272L5.032 9.832C4.95702 9.90637 4.8975 9.99485 4.85689 10.0923C4.81627 10.1898 4.79536 10.2944 4.79536 10.4C4.79536 10.5056 4.81627 10.6102 4.85689 10.7077C4.8975 10.8051 4.95702 10.8936 5.032 10.968C5.10637 11.043 5.19485 11.1025 5.29234 11.1431C5.38983 11.1837 5.49439 11.2046 5.6 11.2046C5.70561 11.2046 5.81017 11.1837 5.90766 11.1431C6.00515 11.1025 6.09363 11.043 6.168 10.968L14.4 2.728V5.6C14.4 5.81217 14.4843 6.01566 14.6343 6.16569C14.7843 6.31571 14.9878 6.4 15.2 6.4C15.4122 6.4 15.6157 6.31571 15.7657 6.16569C15.9157 6.01566 16 5.81217 16 5.6V0.8C15.9987 0.695458 15.977 0.592178 15.936 0.496Z" fill="#0F1426"/>
</svg>
