<svg width="148" height="30" viewBox="0 0 148 30" fill="none" xmlns="http://www.w3.org/2000/svg">
<path d="M37.3945 21.7798V9.52213H32.546V7.46112H44.5799V9.52213H39.7096V21.7798H37.3945Z" fill="#1A1F33"/>
<path d="M47.8343 21.7798V7.46112H50.1493V21.7798H47.8343Z" fill="#1A1F33"/>
<path d="M67.7844 7.22247H68.5707V21.7798H66.2556V12.7981L62.1278 18.1784H61.3416L57.1919 12.7764V21.7798H54.8769V7.22247H55.685L61.7347 15.2279L67.7844 7.22247Z" fill="#1A1F33"/>
<path d="M73.2875 21.7798V7.46112H82.7661V9.52213H75.6025V13.1886H80.9971V15.1845H75.6025V19.7187H83.0282V21.7798H73.2875Z" fill="#1A1F33"/>
<path d="M85.7874 18.916L87.4254 17.6794C88.4737 19.1981 89.7332 19.9574 91.2038 19.9574C91.9463 19.9574 92.5433 19.7766 92.9946 19.415C93.4606 19.0534 93.6935 18.5689 93.6935 17.9615C93.6935 17.4697 93.5407 17.0864 93.2349 16.8116C92.9291 16.5224 92.3758 16.1897 91.575 15.8137L89.9807 15.076C88.8596 14.5698 88.0151 14.013 87.4472 13.4055C86.894 12.7836 86.6173 12.017 86.6173 11.1059C86.6173 9.96326 87.0541 9.03038 87.9277 8.30722C88.8013 7.58405 89.8788 7.22247 91.1601 7.22247C92.1647 7.22247 93.0747 7.45389 93.8901 7.91671C94.72 8.37953 95.3607 9.00146 95.812 9.78247L94.1959 11.0191C93.4096 9.86202 92.3977 9.28349 91.1601 9.28349C90.5194 9.28349 89.9953 9.43535 89.5876 9.73908C89.1799 10.0428 88.9761 10.4695 88.9761 11.0191C88.9906 11.2794 89.0197 11.4964 89.0634 11.6699C89.1217 11.829 89.26 12.0026 89.4784 12.1906C89.6968 12.3642 89.8497 12.4726 89.937 12.516C90.0244 12.5594 90.3083 12.7041 90.7888 12.9499C90.8762 12.9933 90.9417 13.0295 90.9854 13.0584L92.6015 13.796C93.81 14.3456 94.6836 14.9314 95.2223 15.5533C95.7756 16.1752 96.0523 16.949 96.0523 17.8747C96.0523 19.1041 95.5936 20.102 94.6763 20.8686C93.7736 21.6351 92.6234 22.0184 91.2256 22.0184C90.0608 22.0184 89.0052 21.7436 88.0588 21.194C87.1124 20.6444 86.3552 19.8851 85.7874 18.916Z" fill="#1A1F33"/>
<path d="M117.607 7.46112H120.141L114.528 22.0184H113.763L109.461 11.8652L105.158 22.0184H104.372L98.7593 7.46112H101.315L104.918 17.1371L109.046 7.22247H109.854L114.004 17.1371L117.607 7.46112Z" fill="#1A1F33"/>
<path d="M131.753 21.7798L130.727 19.3933H124.24L123.214 21.7798H120.746L127.101 7.22247H127.888L134.243 21.7798H131.753ZM129.897 17.4191L127.494 11.4964L125.07 17.4191H129.897Z" fill="#1A1F33"/>
<path d="M137.631 21.7798V7.46112H142.894C144.35 7.46112 145.53 7.87332 146.432 8.69773C147.335 9.50767 147.786 10.5563 147.786 11.8435C147.786 13.1307 147.328 14.1865 146.41 15.0109C145.508 15.8354 144.336 16.2476 142.894 16.2476H139.946V21.7798H137.631ZM139.946 14.2082H142.85C143.651 14.2082 144.277 13.9985 144.729 13.5791C145.18 13.1596 145.406 12.5883 145.406 11.8652C145.406 11.142 145.18 10.5707 144.729 10.1513C144.277 9.71739 143.651 9.50044 142.85 9.50044H139.946V14.2082Z" fill="#1A1F33"/>
<path d="M25.7127 2.62543V4.224C25.7127 5.32302 25.4237 6.36494 24.889 7.27841L20.3801 15.0144L15.6688 6.95013C14.5416 5.02328 11.2899 5.02328 10.1627 6.95013L5.45145 14.9858L0.971425 7.30696C0.42226 6.36494 0.118774 5.29447 0.118774 4.224V2.62543C0.118774 1.22668 1.27491 0.0848389 2.69118 0.0848389H23.1403C24.5566 0.0848389 25.7127 1.22668 25.7127 2.62543Z" fill="#7B78FF"/>
<path d="M20.38 15.0143L15.6688 23.05C15.1052 24.0205 14.0502 24.62 12.9085 24.62C11.7668 24.62 10.7263 24.0062 10.1482 23.05L5.43697 14.9857L10.1482 6.95005C11.2755 5.0232 14.5271 5.0232 15.6543 6.95005L20.38 15.0143Z" fill="#12429F"/>
<path d="M25.7127 25.7619V27.3605C25.7127 28.7592 24.5566 29.9011 23.1403 29.9011H2.69118C1.27491 29.9153 0.118774 28.7735 0.118774 27.3747V25.7476C0.118774 24.6772 0.407808 23.6352 0.942521 22.7218L5.45145 14.9858L10.1627 23.05C10.7263 24.0206 11.7813 24.6201 12.923 24.6201C14.0647 24.6201 15.1052 24.0063 15.6833 23.05L20.3945 15.0144L24.8745 22.6932C25.4237 23.6352 25.7127 24.7057 25.7127 25.7619Z" fill="#A0D2EB"/>
</svg>
