<svg width="23" height="26" viewBox="0 0 23 26" fill="none" xmlns="http://www.w3.org/2000/svg">
<path d="M22.1054 2.4816V3.84038C22.1054 4.77455 21.8598 5.66019 21.4053 6.43663L17.5727 13.0122L13.5681 6.1576C12.61 4.51978 9.84607 4.51978 8.88792 6.1576L4.88336 12.9879L1.07534 6.4609C0.608549 5.66018 0.350586 4.75028 0.350586 3.84038V2.4816C0.350586 1.29266 1.3333 0.322098 2.53713 0.322098H19.9189C21.1227 0.322098 22.1054 1.29266 22.1054 2.4816Z" fill="#7B78FF"/>
<path d="M17.5727 13.0121L13.5681 19.8425C13.0891 20.6674 12.1923 21.177 11.2219 21.177C10.2515 21.177 9.36702 20.6553 8.87566 19.8425L4.87109 12.9879L8.87566 6.15754C9.83381 4.51971 12.5977 4.51971 13.5558 6.15754L17.5727 13.0121Z" fill="#12429F"/>
<path d="M22.1054 22.1476V23.5064C22.1054 24.6953 21.1227 25.6659 19.9189 25.6659H2.53713C1.3333 25.678 0.350586 24.7075 0.350586 23.5185V22.1355C0.350586 21.2256 0.596265 20.3399 1.05077 19.5635L4.88336 12.9879L8.88792 19.8425C9.367 20.6675 10.2637 21.177 11.2342 21.177C12.2046 21.177 13.089 20.6554 13.5804 19.8425L17.585 13.0122L21.393 19.5392C21.8598 20.3399 22.1054 21.2498 22.1054 22.1476Z" fill="#A0D2EB"/>
</svg>
