<svg width="158" height="40" viewBox="0 0 158 40" fill="none" xmlns="http://www.w3.org/2000/svg">
<path d="M42.3945 26.7797V14.5221H37.546V12.4611H49.5799V14.5221H44.7095V26.7797H42.3945Z" fill="white"/>
<path d="M52.8343 26.7797V12.4611H55.1493V26.7797H52.8343Z" fill="white"/>
<path d="M72.7844 12.2224H73.5706V26.7797H71.2556V17.798L67.1278 23.1783H66.3415L62.1919 17.7763V26.7797H59.8769V12.2224H60.6849L66.7347 20.2278L72.7844 12.2224Z" fill="white"/>
<path d="M78.2874 26.7797V12.4611H87.7661V14.5221H80.6025V18.1885H85.997V20.1844H80.6025V24.7187H88.0282V26.7797H78.2874Z" fill="white"/>
<path d="M90.7874 23.916L92.4254 22.6794C93.4737 24.198 94.7332 24.9573 96.2037 24.9573C96.9463 24.9573 97.5433 24.7765 97.9946 24.415C98.4605 24.0534 98.6935 23.5689 98.6935 22.9614C98.6935 22.4696 98.5406 22.0864 98.2349 21.8116C97.9291 21.5223 97.3758 21.1896 96.575 20.8136L94.9807 20.076C93.8595 19.5698 93.0151 19.0129 92.4472 18.4055C91.8939 17.7835 91.6173 17.017 91.6173 16.1058C91.6173 14.9632 92.0541 14.0303 92.9277 13.3072C93.8013 12.584 94.8788 12.2224 96.16 12.2224C97.1647 12.2224 98.0747 12.4538 98.8901 12.9166C99.72 13.3795 100.361 14.0014 100.812 14.7824L99.1958 16.019C98.4096 14.862 97.3977 14.2834 96.16 14.2834C95.5194 14.2834 94.9952 14.4353 94.5876 14.739C94.1799 15.0428 93.976 15.4694 93.976 16.019C93.9906 16.2794 94.0197 16.4963 94.0634 16.6699C94.1216 16.829 94.2599 17.0025 94.4783 17.1905C94.6968 17.3641 94.8496 17.4726 94.937 17.516C95.0244 17.5594 95.3083 17.704 95.7888 17.9499C95.8761 17.9933 95.9416 18.0294 95.9853 18.0583L97.6015 18.796C98.81 19.3456 99.6836 19.9313 100.222 20.5533C100.776 21.1752 101.052 21.949 101.052 22.8746C101.052 24.104 100.594 25.102 99.6763 25.8685C98.7736 26.6351 97.6233 27.0183 96.2256 27.0183C95.0608 27.0183 94.0051 26.7435 93.0587 26.1939C92.1123 25.6443 91.3552 24.885 90.7874 23.916Z" fill="white"/>
<path d="M122.607 12.4611H125.141L119.528 27.0183H118.763L114.461 16.8651L110.158 27.0183H109.372L103.759 12.4611H106.315L109.918 22.137L114.046 12.2224H114.854L119.004 22.137L122.607 12.4611Z" fill="white"/>
<path d="M136.753 26.7797L135.727 24.3933H129.24L128.214 26.7797H125.746L132.101 12.2224H132.888L139.243 26.7797H136.753ZM134.897 22.419L132.494 16.4963L130.07 22.419H134.897Z" fill="white"/>
<path d="M142.631 26.7797V12.4611H147.894C149.35 12.4611 150.53 12.8733 151.432 13.6977C152.335 14.5076 152.786 15.5562 152.786 16.8434C152.786 18.1307 152.328 19.1865 151.41 20.0109C150.508 20.8353 149.336 21.2475 147.894 21.2475H144.946V26.7797H142.631ZM144.946 19.2082H147.85C148.651 19.2082 149.277 18.9985 149.729 18.579C150.18 18.1596 150.406 17.5883 150.406 16.8651C150.406 16.142 150.18 15.5707 149.729 15.1512C149.277 14.7173 148.651 14.5004 147.85 14.5004H144.946V19.2082Z" fill="white"/>
<path d="M30.7127 7.62543V9.224C30.7127 10.323 30.4237 11.3649 29.889 12.2784L25.3801 20.0144L20.6688 11.9501C19.5416 10.0233 16.2899 10.0233 15.1627 11.9501L10.4515 19.9858L5.97142 12.307C5.42226 11.3649 5.11877 10.2945 5.11877 9.224V7.62543C5.11877 6.22668 6.27491 5.08484 7.69118 5.08484H28.1403C29.5566 5.08484 30.7127 6.22668 30.7127 7.62543Z" fill="#7B78FF"/>
<path d="M25.38 20.0142L20.6688 28.0499C20.1051 29.0205 19.0502 29.6199 17.9085 29.6199C16.7668 29.6199 15.7263 29.0062 15.1482 28.0499L10.437 19.9857L15.1482 11.95C16.2754 10.0232 19.5271 10.0232 20.6543 11.95L25.38 20.0142Z" fill="#12429F"/>
<path d="M30.7127 30.7619V32.3605C30.7127 33.7593 29.5566 34.9011 28.1403 34.9011H7.69118C6.27491 34.9154 5.11877 33.7735 5.11877 32.3748V30.7477C5.11877 29.6772 5.40781 28.6353 5.94252 27.7218L10.4515 19.9858L15.1627 28.0501C15.7263 29.0206 16.7813 29.6201 17.923 29.6201C19.0647 29.6201 20.1052 29.0064 20.6833 28.0501L25.3945 20.0144L29.8745 27.6932C30.4237 28.6353 30.7127 29.7057 30.7127 30.7619Z" fill="#A0D2EB"/>
</svg>
