<svg width="24" height="24" viewBox="0 0 24 24" fill="none" xmlns="http://www.w3.org/2000/svg">
<rect width="24" height="24" rx="12" fill="#A0D2EB"/>
<path d="M6.2787 8.42931C6.28789 8.33852 6.27557 8.24684 6.24273 8.16169C6.20988 8.07655 6.15744 8.00034 6.08966 7.93924L4.68893 6.25191V6H9.03779L12.399 13.3719L15.3544 6H19.5V6.25202L18.3025 7.40015C18.2519 7.43876 18.2127 7.49047 18.1893 7.54969C18.1658 7.60891 18.159 7.6734 18.1695 7.73622V16.1722C18.159 16.235 18.1658 16.2995 18.1893 16.3587C18.2127 16.4179 18.2519 16.4696 18.3025 16.5083L19.4719 17.6564V17.9084H13.5897V17.6564L14.8011 16.4802C14.9202 16.3611 14.9202 16.3262 14.9202 16.1442V9.32542L11.5518 17.8804H11.0966L7.17504 9.32542V15.0591C7.15891 15.1781 7.17008 15.2991 7.20769 15.4132C7.24531 15.5272 7.30838 15.6311 7.39214 15.7171L8.96771 17.6283V17.8804H4.5V17.6284L6.07557 15.7171C6.15865 15.6311 6.22033 15.5267 6.25561 15.4123C6.2909 15.298 6.29881 15.177 6.2787 15.0591V8.42931Z" fill="#14161E"/>
</svg>
