<svg width="20" height="20" viewBox="0 0 20 20" fill="none" xmlns="http://www.w3.org/2000/svg">
<path d="M5.64972 15.1111C8.76997 15.1111 11.2994 12.6238 11.2994 9.55556C11.2994 6.48731 8.76997 4 5.64972 4C2.52946 4 0 6.48731 0 9.55556C0 12.6238 2.52946 15.1111 5.64972 15.1111Z" fill="white"/>
<path d="M14.6442 14.8444C16.2043 14.8444 17.4691 12.4814 17.4691 9.5666C17.4691 6.65176 16.2043 4.28882 14.6442 4.28882C13.0841 4.28882 11.8193 6.65176 11.8193 9.5666C11.8193 12.4814 13.0841 14.8444 14.6442 14.8444Z" fill="white"/>
<path d="M19.9994 9.57781C19.9994 12.1797 19.5543 14.2889 19.0051 14.2889C18.4559 14.2889 18.0107 12.1797 18.0107 9.57781C18.0107 6.97593 18.4559 4.8667 19.0051 4.8667C19.5543 4.8667 19.9994 6.97593 19.9994 9.57781Z" fill="white"/>
</svg>
