<svg width="24" height="24" viewBox="0 0 24 24" fill="none" xmlns="http://www.w3.org/2000/svg">
<path d="M10.515 0.869981C10.245 0.480011 9.77252 0.292511 9.31499 0.404981C4.05001 1.70247 0.375 6.40499 0.375 11.8425C0.375 18.3375 5.66249 23.625 12.1575 23.625C17.595 23.625 22.2975 19.95 23.595 14.685C23.7075 14.2275 23.52 13.755 23.13 13.485C22.7475 13.2225 22.23 13.23 21.8475 13.5C20.46 14.4825 18.8325 15.0075 17.1375 15.0075C12.645 15.0075 8.99249 11.355 8.99249 6.86247C8.99249 5.16751 9.5175 3.53998 10.5 2.1525C10.77 1.77 10.7775 1.25249 10.515 0.869981Z" fill="black"/>
</svg>
