<svg width="80" height="80" viewBox="0 0 80 80" fill="none" xmlns="http://www.w3.org/2000/svg">
<path d="M45.5703 79.6103C38.0613 80.6662 30.4068 79.566 23.4992 76.438C16.5917 73.3099 10.7155 68.2828 6.55578 61.9427C2.39606 55.6027 0.124169 48.2108 0.00494451 40.6289C-0.11428 33.047 1.92408 25.5874 5.88239 19.1197C9.8407 12.6519 15.5559 7.44258 22.3617 4.09887C29.1676 0.755156 36.7836 -0.585152 44.3221 0.23419C51.8605 1.05353 59.0108 3.99877 64.9394 8.72655C70.8679 13.4543 75.3305 19.7699 77.8069 26.937L74.3347 28.1367C72.0858 21.6278 68.033 15.8923 62.649 11.5987C57.2649 7.30507 50.7713 4.63032 43.9251 3.88623C37.079 3.14213 30.1624 4.35935 23.9816 7.39598C17.8008 10.4326 12.6105 15.1635 9.01571 21.0373C5.42092 26.911 3.56976 33.6856 3.67804 40.5712C3.78631 47.4568 5.84956 54.1698 9.62725 59.9276C13.4049 65.6854 18.7414 70.2508 25.0147 73.0916C31.2879 75.9323 38.2393 76.9315 45.0587 75.9725L45.5703 79.6103Z" fill="#52CCB8"/>
</svg>
