<svg width="20" height="20" viewBox="0 0 20 20" fill="none" xmlns="http://www.w3.org/2000/svg">
<path d="M18.3 10.7C18 10.3 18 9.8 18.3 9.4L19.6 8C19.9 7.7 19.9 7.2 19.7 6.8L17.7 3.3C17.5 2.9 17.1 2.7 16.6 2.8L14.7 3.2C14.2 3.3 13.7 3 13.6 2.5L13 0.7C12.8 0.3 12.4 0 12 0H7.99997C7.59997 0 7.19998 0.3 7.09998 0.7L6.39997 2.5C6.29997 3 5.79997 3.3 5.29997 3.2L3.39997 2.8C2.99997 2.7 2.59997 2.9 2.29997 3.3L0.299975 6.8C0.0999747 7.1 0.199975 7.6 0.499975 7.9L1.79997 9.3C2.09997 9.7 2.09997 10.2 1.79997 10.6L0.499975 12C0.199975 12.3 0.199975 12.8 0.399975 13.2L2.39997 16.7C2.59997 17.1 2.99997 17.3 3.49997 17.2L5.39997 16.8C5.89997 16.7 6.39997 17 6.49997 17.5L7.09998 19.3C7.19998 19.7 7.59997 20 7.99997 20H12C12.4 20 12.8 19.7 12.9 19.3L13.5 17.5C13.7 17 14.2 16.7 14.6 16.8L16.5 17.2C16.9 17.3 17.4 17.1 17.6 16.7L19.6 13.2C19.8 12.8 19.8 12.4 19.5 12L18.3 10.7ZM9.99997 13C8.29997 13 6.99997 11.7 6.99997 10C6.99997 8.3 8.29997 7 9.99997 7C11.7 7 13 8.3 13 10C13 11.7 11.7 13 9.99997 13Z" fill="#5452CC"/>
</svg>
