<svg width="21" height="20" viewBox="0 0 21 20" fill="none" xmlns="http://www.w3.org/2000/svg">
<path d="M18.8 10.7C18.5 10.3 18.5 9.8 18.8 9.4L20.1 8C20.4 7.7 20.4 7.2 20.2 6.8L18.2 3.3C18 2.9 17.6 2.7 17.1 2.8L15.2 3.2C14.7 3.3 14.2 3 14.1 2.5L13.5 0.7C13.3 0.3 12.9 0 12.5 0H8.49997C8.09997 0 7.69998 0.3 7.59998 0.7L6.89997 2.5C6.79997 3 6.29997 3.3 5.79997 3.2L3.89997 2.8C3.49997 2.7 3.09997 2.9 2.79997 3.3L0.799975 6.8C0.599975 7.1 0.699975 7.6 0.999975 7.9L2.29997 9.3C2.59997 9.7 2.59997 10.2 2.29997 10.6L0.999975 12C0.699975 12.3 0.699975 12.8 0.899975 13.2L2.89997 16.7C3.09997 17.1 3.49997 17.3 3.99997 17.2L5.89997 16.8C6.39997 16.7 6.89997 17 6.99997 17.5L7.59998 19.3C7.69998 19.7 8.09997 20 8.49997 20H12.5C12.9 20 13.3 19.7 13.4 19.3L14 17.5C14.2 17 14.7 16.7 15.1 16.8L17 17.2C17.4 17.3 17.9 17.1 18.1 16.7L20.1 13.2C20.3 12.8 20.3 12.4 20 12L18.8 10.7ZM10.5 13C8.79997 13 7.49997 11.7 7.49997 10C7.49997 8.3 8.79997 7 10.5 7C12.2 7 13.5 8.3 13.5 10C13.5 11.7 12.2 13 10.5 13Z" fill="white"/>
</svg>
