<svg width="24" height="24" viewBox="0 0 24 24" fill="none" xmlns="http://www.w3.org/2000/svg">
<path fill-rule="evenodd" clip-rule="evenodd" d="M13.173 0.539795C12.404 -0.179932 11.2086 -0.179932 10.4396 0.539795L8.6105 2.25174C8.25659 2.58298 7.79443 2.77442 7.30996 2.79044L4.80606 2.87329C3.75338 2.90812 2.90812 3.75338 2.87329 4.80606L2.79044 7.30996C2.77442 7.79443 2.58298 8.25659 2.25174 8.6105L0.539795 10.4396C-0.179932 11.2086 -0.179932 12.404 0.539795 13.173L2.25174 15.0021C2.58298 15.356 2.77442 15.8181 2.79044 16.3026L2.87329 18.8065C2.90812 19.8592 3.75338 20.7044 4.80606 20.7393L7.30996 20.8221C7.79443 20.8381 8.25659 21.0296 8.6105 21.3608L10.4396 23.0728C11.2086 23.7925 12.404 23.7925 13.173 23.0728L15.0021 21.3608C15.356 21.0296 15.8181 20.8381 16.3026 20.8221L18.8065 20.7393C19.8592 20.7044 20.7044 19.8592 20.7393 18.8065L20.8221 16.3026C20.8381 15.8181 21.0296 15.356 21.3608 15.0021L23.0728 13.173C23.7925 12.404 23.7925 11.2086 23.0728 10.4396L21.3608 8.6105C21.0296 8.25659 20.8381 7.79443 20.8221 7.30996L20.7393 4.80606C20.7044 3.75338 19.8592 2.90812 18.8065 2.87329L16.3026 2.79044C15.8181 2.77442 15.356 2.58298 15.0021 2.25174L13.173 0.539795ZM9.96139 15.4329L16.756 8.63828L15.7124 7.59462L9.96139 13.3456L7.9003 11.2845L6.85664 12.3282L9.96139 15.4329Z" fill="#52CCB8"/>
</svg>
