<svg width="24" height="24" viewBox="0 0 24 24" fill="none" xmlns="http://www.w3.org/2000/svg">
<path d="M12 18.75C15.7279 18.75 18.75 15.7279 18.75 12C18.75 8.27208 15.7279 5.25 12 5.25C8.27208 5.25 5.25 8.27208 5.25 12C5.25 15.7279 8.27208 18.75 12 18.75Z" fill="white"/>
<path d="M13.125 3.104V1.5C13.125 0.878902 12.6215 0.375 12 0.375C11.3785 0.375 10.875 0.87891 10.875 1.5V3.104C10.875 3.7251 11.3785 4.229 12 4.229C12.6215 4.229 13.125 3.7251 13.125 3.104ZM6.50537 6.50464C6.94446 6.06518 6.94446 5.35254 6.505 4.91382L5.37085 3.78003C4.93139 3.34057 4.21912 3.34057 3.77966 3.78003C3.34057 4.21949 3.34057 4.93213 3.78003 5.37085L4.91419 6.50464C5.13391 6.72436 5.42175 6.83422 5.70959 6.83422C5.99744 6.83422 6.28565 6.72436 6.50537 6.50464ZM1.5 13.125H3.10363C3.72509 13.125 4.22863 12.6211 4.22863 12C4.22863 11.3789 3.72509 10.875 3.10363 10.875H1.5C0.878542 10.875 0.375 11.3789 0.375 12C0.375 12.6211 0.878542 13.125 1.5 13.125ZM3.77966 20.22C3.99939 20.4397 4.2876 20.5496 4.57544 20.5496C4.86329 20.5496 5.15113 20.4397 5.37085 20.22L6.50501 19.0862C6.94447 18.6475 6.94447 17.9348 6.50538 17.4954C6.06592 17.0559 5.35365 17.0559 4.9142 17.4954L3.78004 18.6292C3.34057 19.0679 3.34057 19.7805 3.77966 20.22ZM10.875 20.896V22.5C10.875 23.1211 11.3785 23.625 12 23.625C12.6215 23.625 13.125 23.1211 13.125 22.5V20.896C13.125 20.2749 12.6215 19.771 12 19.771C11.3785 19.771 10.875 20.2749 10.875 20.896ZM18.6292 20.22C18.8489 20.4397 19.1367 20.5496 19.4246 20.5496C19.7124 20.5496 20.0002 20.4397 20.22 20.22C20.6594 19.7805 20.6594 19.0686 20.22 18.6292L19.0862 17.4954C18.6467 17.0559 17.9348 17.0559 17.4954 17.4954C17.0559 17.9348 17.0559 18.6467 17.4954 19.0862L18.6292 20.22ZM22.5 10.875H20.896C20.2749 10.875 19.771 11.3789 19.771 12C19.771 12.6211 20.2749 13.125 20.896 13.125H22.5C23.1211 13.125 23.625 12.6211 23.625 12C23.625 11.3789 23.1211 10.875 22.5 10.875ZM20.22 3.78003C19.7805 3.34057 19.0686 3.34057 18.6292 3.78003L17.4954 4.91382C17.0559 5.35328 17.0559 6.06519 17.4954 6.50464C17.7151 6.72436 18.0029 6.83422 18.2908 6.83422C18.5786 6.83422 18.8665 6.72436 19.0862 6.50464L20.22 5.37085C20.6594 4.9314 20.6594 4.21949 20.22 3.78003Z" fill="white"/>
</svg>
