<svg width="24" height="24" viewBox="0 0 24 24" fill="none" xmlns="http://www.w3.org/2000/svg">
<path d="M2.4 8.39984H18L16.08 9.83984C15.9539 9.93439 15.8477 10.0528 15.7674 10.1884C15.6871 10.324 15.6343 10.4741 15.6121 10.6301C15.5898 10.7861 15.5984 10.945 15.6375 11.0977C15.6766 11.2503 15.7454 11.3938 15.84 11.5198C15.9518 11.6689 16.0967 11.7898 16.2633 11.8731C16.43 11.9565 16.6137 11.9998 16.8 11.9998C17.0596 11.9998 17.3123 11.9156 17.52 11.7598L22.32 8.15984C22.4668 8.04785 22.5857 7.90351 22.6676 7.73804C22.7495 7.57258 22.7921 7.39045 22.7921 7.20584C22.7921 7.02122 22.7495 6.8391 22.6676 6.67363C22.5857 6.50817 22.4668 6.36383 22.32 6.25184L17.688 2.65184C17.4366 2.45611 17.1177 2.36827 16.8015 2.40765C16.4853 2.44704 16.1977 2.61041 16.002 2.86184C15.8063 3.11326 15.7184 3.43214 15.7578 3.74833C15.7972 4.06451 15.9606 4.35211 16.212 4.54784L18.096 5.99984H2.4C2.08174 5.99984 1.77651 6.12626 1.55147 6.35131C1.32643 6.57635 1.2 6.88158 1.2 7.19984C1.2 7.5181 1.32643 7.82332 1.55147 8.04836C1.77651 8.27341 2.08174 8.39984 2.4 8.39984V8.39984ZM21.6 16.7998H6L7.92 15.3598C8.1746 15.1689 8.34293 14.8846 8.38794 14.5695C8.43294 14.2545 8.35095 13.9344 8.16 13.6798C7.96904 13.4252 7.68476 13.2569 7.3697 13.2119C7.05464 13.1669 6.7346 13.2489 6.48 13.4398L1.68 17.0398C1.53323 17.1518 1.41428 17.2962 1.3324 17.4616C1.25052 17.6271 1.20793 17.8092 1.20793 17.9938C1.20793 18.1785 1.25052 18.3606 1.3324 18.526C1.41428 18.6915 1.53323 18.8358 1.68 18.9478L6.312 22.5478C6.52146 22.7104 6.77886 22.799 7.044 22.7998C7.22726 22.7994 7.40798 22.757 7.57231 22.6759C7.73664 22.5947 7.88021 22.4771 7.992 22.3318C8.18687 22.0817 8.2748 21.7645 8.23657 21.4498C8.19835 21.135 8.03707 20.8481 7.788 20.6518L5.904 19.1998H21.6C21.9183 19.1998 22.2235 19.0734 22.4485 18.8484C22.6736 18.6233 22.8 18.3181 22.8 17.9998C22.8 17.6816 22.6736 17.3764 22.4485 17.1513C22.2235 16.9263 21.9183 16.7998 21.6 16.7998Z" fill="white"/>
</svg>
