<svg width="20" height="20" viewBox="0 0 20 20" fill="none" xmlns="http://www.w3.org/2000/svg">
<path d="M0.30207 9.70478C2.34813 8.57778 4.63208 7.63713 6.76609 6.6917C10.4374 5.14315 14.1233 3.62144 17.8464 2.20474C18.5708 1.96337 19.8724 1.72734 20 2.8008C19.9301 4.32032 19.6426 5.83095 19.4454 7.34157C18.945 10.6636 18.3665 13.9742 17.8024 17.2853C17.608 18.3882 16.2264 18.9591 15.3424 18.2533C13.2178 16.8183 11.077 15.3972 8.97958 13.9288C8.29253 13.2307 8.92964 12.2282 9.54324 11.7296C11.2931 10.0052 13.1488 8.54005 14.8072 6.72648C15.2545 5.64626 13.9327 6.55663 13.4968 6.8356C11.1012 8.4864 8.76434 10.238 6.23871 11.6888C4.94862 12.399 3.44499 11.7921 2.15548 11.3958C0.999303 10.9171 -0.694969 10.4348 0.301953 9.70492L0.30207 9.70478Z" fill="white"/>
</svg>
