<svg width="20" height="20" viewBox="0 0 20 20" fill="none" xmlns="http://www.w3.org/2000/svg">
<path d="M20 4.0178C19.2483 4.35513 18.4534 4.57812 17.64 4.67985C18.4982 4.1495 19.1413 3.31518 19.45 2.33164C18.6436 2.82825 17.7608 3.17813 16.84 3.36609C16.2245 2.67567 15.405 2.21609 14.5098 2.05943C13.6147 1.90277 12.6945 2.05789 11.8938 2.50046C11.093 2.94303 10.4569 3.64801 10.0852 4.50485C9.71355 5.36169 9.62729 6.32192 9.84 7.23494C8.20943 7.14962 6.61444 6.71042 5.15865 5.94587C3.70287 5.18132 2.41885 4.10851 1.39 2.79715C1.02914 3.44902 0.839519 4.18726 0.84 4.93846C0.83872 5.63607 1.00422 6.32319 1.32176 6.93863C1.63929 7.55408 2.09902 8.07875 2.66 8.46593C2.00798 8.44758 1.36989 8.26659 0.8 7.93836V7.99008C0.804887 8.96753 1.13599 9.91322 1.73731 10.6672C2.33864 11.4212 3.17326 11.9372 4.1 12.1279C3.74326 12.2402 3.37288 12.2994 3 12.3037C2.74189 12.3006 2.48442 12.2764 2.23 12.2313C2.49391 13.0721 3.00462 13.8069 3.69107 14.3335C4.37753 14.86 5.20558 15.1521 6.06 15.1692C4.6172 16.3435 2.83588 16.9845 1 16.9898C0.665735 16.9909 0.331736 16.9702 0 16.9277C1.87443 18.1797 4.05881 18.8443 6.29 18.8415C7.82969 18.858 9.35714 18.557 10.7831 17.9561C12.2091 17.3551 13.505 16.4662 14.5952 15.3414C15.6854 14.2165 16.548 12.8783 17.1326 11.4047C17.7172 9.93115 18.012 8.35186 18 6.75909C18 6.58323 18 6.39703 18 6.21083C18.7847 5.60548 19.4615 4.86338 20 4.0178V4.0178Z" fill="white"/>
</svg>
