<svg width="24" height="24" viewBox="0 0 24 24" fill="none" xmlns="http://www.w3.org/2000/svg">
<path fill-rule="evenodd" clip-rule="evenodd" d="M0 4.24386V20.5601C0 21.6833 0.911326 22.5937 2.0355 22.5937H20.1657C21.2899 22.5937 22.2012 21.6833 22.2012 20.5601V18.5738H19.3609C16.8512 18.5738 14.8166 16.5411 14.8166 14.0336C14.8166 11.5262 16.8512 9.49344 19.3609 9.49344H22.2012V7.45982C22.2012 6.33668 21.2899 5.4262 20.1657 5.4262H19.1243V3.43987C19.1243 2.31673 18.2129 1.40625 17.0888 1.40625H3.00592C1.40139 1.40625 0.0904852 2.66226 0.00448988 4.24386H0ZM3.00592 3.43987H17.0888V5.37891H3.00592C2.46997 5.37891 2.0355 4.94484 2.0355 4.40939C2.0355 3.87394 2.46997 3.43987 3.00592 3.43987Z" fill="white"/>
<path fill-rule="evenodd" clip-rule="evenodd" d="M16.426 14.0336C16.426 12.362 17.7824 11.0068 19.4556 11.0068H23.2426C23.6609 11.0068 24 11.3456 24 11.7635V16.3037C24 16.7216 23.6609 17.0604 23.2426 17.0604H19.4556C17.7824 17.0604 16.426 15.7053 16.426 14.0336ZM20.213 14.0336C20.213 14.6083 19.7468 15.0741 19.1716 15.0741C18.5964 15.0741 18.1302 14.6083 18.1302 14.0336C18.1302 13.459 18.5964 12.9932 19.1716 12.9932C19.7468 12.9932 20.213 13.459 20.213 14.0336Z" fill="white"/>
</svg>
