<svg width="16" height="14" viewBox="0 0 16 14" fill="none" xmlns="http://www.w3.org/2000/svg">
<path d="M15.7636 10.8471L9.90161 1.0382C9.32265 0.0573111 7.9476 -0.293008 6.93441 0.267502C6.57256 0.477694 6.28308 0.757949 6.13834 1.0382L0.27631 10.8471C-0.302655 11.828 0.0591983 13.1592 1.07239 13.7197C1.43424 13.9299 1.7961 14 2.15795 14H13.8096C15.0399 14 15.9808 13.0191 15.9808 11.8981C16.0531 11.4777 15.9084 11.1274 15.7636 10.8471ZM8.01997 11.1974C7.58575 11.1974 7.29627 10.9172 7.29627 10.4968C7.29627 10.0764 7.58575 9.79617 8.01997 9.79617C8.4542 9.79617 8.74368 10.0764 8.74368 10.4968C8.74368 10.9172 8.4542 11.1974 8.01997 11.1974ZM8.74368 7.69426C8.74368 8.11464 8.4542 8.3949 8.01997 8.3949C7.58575 8.3949 7.29627 8.11464 7.29627 7.69426V4.89171C7.29627 4.47133 7.58575 4.19107 8.01997 4.19107C8.4542 4.19107 8.74368 4.47133 8.74368 4.89171V7.69426Z" fill="#F2BD54"/>
</svg>
